<svg width="64" height="64" viewBox="0 0 64 64" fill="none" xmlns="http://www.w3.org/2000/svg">
<g clip-path="url(#clip0_1_1536)">
<path d="M56.0533 13.3334H50.6667V7.94671C50.6667 6.50671 49.4933 5.33337 48.0533 5.33337H47.9733C46.5067 5.33337 45.3333 6.50671 45.3333 7.94671V13.3334H39.9733C38.5333 13.3334 37.36 14.5067 37.3333 15.9467V16.0267C37.3333 17.4934 38.5067 18.6667 39.9733 18.6667H45.3333V24.0267C45.3333 25.4667 46.5067 26.6667 47.9733 26.64H48.0533C49.4933 26.64 50.6667 25.4667 50.6667 24.0267V18.6667H56.0533C57.4933 18.6667 58.6667 17.4934 58.6667 16.0534V15.9467C58.6667 14.5067 57.4933 13.3334 56.0533 13.3334ZM42.6667 24.0267V21.3334H39.9733C38.56 21.3334 37.2267 20.7734 36.2133 19.7867C35.2267 18.7734 34.6667 17.44 34.6667 15.9467C34.6667 14.9867 34.9333 14.1067 35.3867 13.3334H13.3333C10.4 13.3334 8 15.7334 8 18.6667V50.6667C8 53.6 10.4 56 13.3333 56H45.3333C48.2667 56 50.6667 53.6 50.6667 50.6667V28.5867C49.8667 29.04 48.96 29.3334 47.9467 29.3334C45.04 29.3067 42.6667 26.9334 42.6667 24.0267ZM42.56 50.6667H16C14.9067 50.6667 14.2667 49.4134 14.9333 48.5334L20.2133 41.52C20.7733 40.7734 21.8667 40.8267 22.4 41.5734L26.6667 48L33.6267 38.72C34.16 38.0267 35.2 38 35.7333 38.6934L43.6 48.5067C44.2933 49.3867 43.68 50.6667 42.56 50.6667Z" fill="#E42E2C"/>
</g>
<defs>
<clipPath id="clip0_1_1536">
<rect width="64" height="64" fill="white"/>
</clipPath>
</defs>
</svg>
