<svg width="607" height="450" viewBox="0 0 607 450" fill="none" xmlns="http://www.w3.org/2000/svg">
<g filter="url(#filter0_d_1_833)">
<g filter="url(#filter1_d_1_833)">
<path d="M130.49 381.226C146.655 367.977 148.764 345.581 146.538 325.883C146.187 322.6 146.187 319.082 144.43 316.268C142.555 313.454 138.69 311.812 135.878 313.454C133.536 314.861 132.598 317.792 131.427 320.255C129.787 323.538 127.327 326.352 124.164 328.345C122.173 329.635 119.596 330.456 117.37 329.518C114.324 328.228 113.739 324.241 113.504 320.958C113.036 314.861 112.567 308.764 112.099 302.549C111.864 299.266 111.63 295.866 110.342 292.935C109.053 289.886 106.476 287.189 103.313 286.603C100.033 286.017 96.2847 288.127 95.9333 291.41C95.8162 292.817 96.1676 294.107 96.1676 295.514C96.1676 296.921 95.699 298.446 94.4105 298.915C93.1219 299.384 91.7162 298.563 90.6619 297.742C86.9134 294.694 84.3363 290.59 81.7592 286.603C79.1821 282.499 76.7222 278.395 73.3251 274.995C69.928 271.595 65.3595 269.132 60.5567 269.25C55.754 269.367 50.9512 272.65 50.1312 277.457C49.3112 282.147 52.474 286.603 55.7539 290.121C60.6739 295.28 66.2966 299.853 72.388 303.37C73.4422 304.074 74.7308 304.777 75.1993 305.95C76.1365 308.06 74.1451 310.405 72.0365 311.343C69.5766 312.399 66.8823 312.281 64.3052 312.868C61.7281 313.337 59.0339 314.744 58.2139 317.206C57.1596 320.724 60.2053 324.007 63.251 326C69.2252 330.104 75.9022 333.27 82.9307 335.146C85.3906 335.849 88.0849 336.436 90.1934 337.96C92.3019 339.484 93.7076 342.298 92.7705 344.761C91.7162 347.223 88.7877 348.161 86.2106 347.926C83.6335 347.692 81.1735 346.519 78.7136 345.816C74.0279 344.526 68.1709 345.23 65.4766 349.451C63.7195 352.147 63.8367 355.782 65.1252 358.714C66.2966 361.645 68.5223 364.107 70.8651 366.452C78.8307 374.308 88.7877 380.405 99.6818 383.102C110.459 385.799 120.299 385.916 130.49 381.226Z" fill="#4FA196"/>
<path d="M132.013 395.883C130.607 388.144 128.147 378.998 124.399 369.267C120.65 359.535 115.613 349.216 109.99 338.546C108.585 335.849 107.179 333.27 105.773 330.69C104.367 328.111 102.962 325.531 101.556 323.186C98.6276 318.379 95.3476 313.923 92.1848 309.819C89.022 305.715 85.7421 301.963 82.8135 298.446C79.7679 294.928 76.9565 291.645 74.1451 288.831C68.6395 283.203 63.7196 279.099 60.2053 276.402C58.4482 275.112 57.0425 274.057 56.1054 273.471C55.6368 273.119 55.2854 272.885 55.0511 272.767C54.8168 272.65 54.6997 272.533 54.6997 272.533C54.6997 272.533 54.8168 272.65 55.0511 272.767C55.2854 273.002 55.6368 273.236 56.1054 273.588C57.0425 274.292 58.4482 275.23 60.2053 276.637C63.7196 279.334 68.6395 283.437 74.028 289.065C76.7222 291.88 79.6507 295.163 82.5793 298.68C85.6249 302.198 88.7877 305.95 91.9505 310.171C95.1133 314.275 98.3933 318.73 101.322 323.538C102.845 326 104.133 328.462 105.539 331.042C106.945 333.622 108.35 336.201 109.756 338.898C115.379 349.568 120.416 359.886 124.164 369.501C127.913 379.233 130.49 388.261 131.896 396" fill="#5ABBAD"/>
<path d="M101.322 323.186C101.322 323.186 101.439 322.717 101.556 321.779C101.673 320.841 101.79 319.551 101.79 317.91C102.025 314.626 102.142 310.054 102.259 305.012C102.376 299.97 102.61 295.397 102.845 292.114C102.962 290.472 103.079 289.183 103.196 288.245C103.313 287.307 103.313 286.838 103.313 286.838C103.313 286.838 103.196 287.307 103.079 288.245C102.962 289.183 102.727 290.472 102.61 292.114C102.259 295.397 102.025 299.97 101.907 305.012C101.79 310.054 101.673 314.509 101.673 317.91C101.673 319.551 101.556 320.841 101.556 321.779C101.322 322.6 101.322 323.186 101.322 323.186Z" fill="#5ABBAD"/>
<path d="M57.98 318.848C57.98 318.848 58.0971 318.848 58.4485 318.848C58.8 318.848 59.2685 318.848 59.7371 318.848C60.7914 318.848 62.4313 318.848 64.4227 318.848C68.4055 318.965 73.794 319.199 79.7682 319.903C85.7424 320.489 91.1309 321.31 95.1137 322.014C97.1051 322.365 98.6279 322.717 99.6822 322.834C100.151 322.952 100.619 322.952 100.971 323.069C101.205 323.069 101.439 323.186 101.439 323.069C101.439 323.069 101.322 322.952 100.971 322.952C100.619 322.834 100.268 322.717 99.6822 322.6C98.6279 322.365 97.1051 322.014 95.1137 321.545C91.248 320.724 85.8595 319.903 79.7682 319.317C73.794 318.73 68.2884 318.496 64.3056 318.496C62.3142 318.496 60.6742 318.496 59.62 318.613C59.1514 318.613 58.6828 318.73 58.3314 318.73C58.0971 318.73 57.98 318.73 57.98 318.848Z" fill="#5ABBAD"/>
<path d="M123.813 368.563C123.813 368.563 123.93 368.329 124.047 367.977C124.164 367.508 124.399 367.039 124.633 366.335C125.102 364.928 125.804 362.935 126.624 360.473C128.264 355.431 130.373 348.513 132.599 340.774C134.824 333.035 136.816 326 138.338 320.958C139.158 318.496 139.744 316.503 140.213 314.978C140.447 314.275 140.564 313.806 140.681 313.337C140.798 312.985 140.798 312.751 140.798 312.751C140.798 312.751 140.681 312.985 140.564 313.337C140.447 313.806 140.213 314.275 139.978 314.978C139.51 316.385 138.807 318.379 137.987 320.841C136.347 325.883 134.239 332.801 132.013 340.54C129.787 348.278 127.796 355.313 126.273 360.355C125.453 362.818 124.867 364.811 124.399 366.335C124.164 367.039 124.047 367.508 123.93 367.977C123.813 368.329 123.813 368.563 123.813 368.563Z" fill="#5ABBAD"/>
<path d="M65.4766 355.196C65.4766 355.196 65.7108 355.313 66.0623 355.313C66.5308 355.431 67.1165 355.548 67.7022 355.665C69.2251 356.017 71.3336 356.486 73.9107 357.072C79.1821 358.245 86.4448 360.003 94.4104 361.997C102.376 363.99 109.756 365.632 115.027 366.804C117.721 367.39 119.83 367.859 121.353 368.094C122.056 368.211 122.641 368.328 123.11 368.446C123.461 368.563 123.696 368.563 123.696 368.563C123.696 368.563 123.461 368.446 123.11 368.446C122.641 368.328 122.056 368.211 121.47 368.094C119.947 367.742 117.839 367.273 115.261 366.687C109.99 365.514 102.727 363.756 94.7618 361.762C86.7962 359.769 79.4163 358.127 74.145 356.955C71.4508 356.369 69.3422 355.9 67.8194 355.665C67.1165 355.548 66.5308 355.431 66.0623 355.313C65.7108 355.196 65.4766 355.079 65.4766 355.196Z" fill="#5ABBAD"/>
<path d="M284.506 46.2241L199.814 71.7284L216.992 128.88L301.684 103.375L284.506 46.2241Z" fill="white"/>
<path d="M301.633 103.337C301.633 103.337 301.516 102.985 301.281 102.281C301.047 101.578 300.696 100.523 300.344 99.2328C299.524 96.536 298.353 92.6667 296.83 87.7421C293.784 77.7756 289.45 63.5879 284.179 46.2345L284.53 46.3518C261.102 53.3869 231.7 62.2982 199.837 71.9129L200.071 71.5611C206.163 91.9632 212.02 111.31 217.174 128.663L216.823 128.429C241.774 120.925 262.859 114.71 277.853 110.255C285.35 108.027 291.207 106.268 295.307 105.095C297.299 104.509 298.938 104.04 299.993 103.688C300.461 103.571 300.93 103.454 301.164 103.337C301.516 103.337 301.633 103.337 301.633 103.337C301.633 103.337 301.516 103.337 301.281 103.454C301.047 103.571 300.578 103.688 300.11 103.806C299.056 104.157 297.533 104.626 295.541 105.213C291.441 106.503 285.584 108.261 278.205 110.489C263.21 115.062 242.008 121.511 217.057 129.132L216.823 129.25L216.706 129.015C211.434 111.662 205.694 92.1977 199.486 71.9129L199.369 71.6784L199.603 71.5611C231.465 61.9464 260.985 53.1524 284.296 46.1173L284.53 46L284.647 46.2345C289.801 63.7052 294.136 78.0101 297.064 87.9766C298.47 92.9012 299.641 96.7705 300.461 99.4673C300.813 100.757 301.164 101.812 301.281 102.516C301.516 102.985 301.633 103.337 301.633 103.337Z" fill="#5ABBAD"/>
<path d="M284.413 46.2345C284.413 46.2345 284.413 46.3518 284.296 46.469C284.179 46.7035 284.062 46.938 283.945 47.1725C283.593 47.876 283.007 48.8141 282.422 49.9866C281.016 52.4489 279.025 55.8492 276.565 60.1876C271.528 68.7471 264.499 80.7069 256.768 93.8392L256.651 94.0737L256.416 93.9564C255.597 93.6047 254.659 93.2529 253.839 92.9012C238.963 87.0385 225.491 81.8794 215.651 78.01C210.849 76.134 206.866 74.4925 204.172 73.4372C202.883 72.8509 201.829 72.4992 201.009 72.1474C200.657 72.0301 200.423 71.9129 200.189 71.7956C199.955 71.6784 199.955 71.6784 199.955 71.6784C199.955 71.6784 200.072 71.6784 200.189 71.7956C200.423 71.9129 200.657 71.9129 201.009 72.0301C201.829 72.2647 202.883 72.7337 204.172 73.2027C206.983 74.258 210.966 75.7822 215.769 77.6583C225.608 81.4104 239.08 86.6868 253.957 92.4322C254.894 92.7839 255.714 93.1357 256.534 93.4874L256.182 93.6047C264.031 80.4724 271.059 68.6298 276.213 59.9531C278.79 55.732 280.782 52.3317 282.305 49.8693C283.007 48.6968 283.593 47.7588 283.945 47.1725C284.179 46.938 284.296 46.7035 284.413 46.469C284.413 46.2345 284.413 46.2345 284.413 46.2345Z" fill="#5ABBAD"/>
<path d="M530.878 274.408C530.878 274.408 525.372 269.015 514.712 282.616C504.052 296.218 499.367 304.308 499.367 304.308C499.367 304.308 496.672 307.122 494.915 304.542C493.158 302.08 491.284 295.514 487.418 295.866C483.318 296.218 481.21 300.204 480.741 306.653C480.273 313.102 478.515 327.172 478.398 328.462C478.281 329.752 477.227 331.393 475.704 329.869C474.181 328.345 466.567 315.447 460.71 319.434C454.853 323.42 456.259 341.594 456.376 343.588C456.493 345.581 456.024 346.285 454.97 346.636C454.033 346.871 451.807 342.298 449.465 338.78C447.122 335.146 443.842 331.393 440.562 334.09C437.399 336.67 434.002 349.45 442.085 372.784L446.536 383.336L458.016 384.978C482.733 386.971 494.212 380.522 495.852 376.77C497.609 373.018 493.041 370.673 489.058 369.383C485.075 368.094 480.038 367.038 480.038 366.1C480.038 365.045 480.624 364.341 482.615 363.99C484.607 363.638 502.529 360.472 504.872 353.789C507.215 347.105 492.807 342.884 491.05 341.829C489.175 340.774 490.581 339.367 491.752 338.898C492.924 338.429 506.161 333.269 512.252 331.159C518.343 329.048 521.741 326 521.038 322.013C520.335 318.144 513.658 318.027 510.846 316.971C508.035 315.916 510.026 312.633 510.026 312.633C510.026 312.633 516.703 306.067 527.246 292.348C537.672 278.512 530.878 274.526 530.878 274.526" fill="#4FA196"/>
<path d="M521.272 286.603C521.272 286.603 521.272 286.72 521.038 286.955C520.921 287.189 520.686 287.424 520.452 287.775C519.866 288.479 519.164 289.651 518.109 290.941C516.118 293.755 513.072 297.625 509.324 302.549C501.944 312.281 491.518 325.648 479.921 340.422C468.442 355.196 458.016 368.445 450.402 378.177C446.653 382.985 443.608 386.854 441.499 389.668C440.445 390.958 439.625 392.013 439.039 392.834C438.805 393.186 438.571 393.42 438.336 393.655C438.219 393.889 438.102 393.889 438.102 393.889C438.102 393.889 438.102 393.772 438.336 393.537C438.453 393.303 438.688 393.068 438.922 392.717C439.508 392.013 440.211 390.841 441.265 389.551C443.256 386.737 446.302 382.867 450.05 377.943C457.43 368.211 467.856 354.844 479.453 340.07C490.933 325.296 501.358 312.047 508.972 302.315C512.721 297.507 515.767 293.638 517.875 290.824C518.929 289.534 519.749 288.479 520.335 287.658C520.569 287.306 520.804 287.072 521.038 286.837C521.155 286.72 521.272 286.603 521.272 286.603Z" fill="#5ABBAD"/>
<path d="M489.527 305.129C489.644 305.129 489.761 306.301 489.995 308.177C490.112 310.053 490.347 312.75 490.464 315.681C490.581 318.495 490.581 321.075 490.698 323.186C490.698 325.062 490.815 326.234 490.698 326.234C490.581 326.234 490.464 325.062 490.23 323.186C490.112 321.309 489.995 318.613 489.878 315.681C489.761 312.867 489.644 310.405 489.644 308.177C489.41 306.301 489.41 305.129 489.527 305.129Z" fill="#5ABBAD"/>
<path d="M491.635 326.586C491.635 326.469 497.024 325.883 503.701 325.297C510.378 324.71 515.883 324.476 515.883 324.593C515.883 324.71 510.495 325.297 503.818 325.883C497.024 326.469 491.635 326.704 491.635 326.586Z" fill="#5ABBAD"/>
<path d="M472.19 349.216C472.19 349.099 473.361 349.333 475.353 349.685C477.227 350.037 479.921 350.506 482.85 350.975C485.778 351.444 488.473 351.795 490.347 352.03C492.221 352.264 493.51 352.499 493.51 352.499C493.51 352.616 492.338 352.616 490.347 352.382C488.355 352.264 485.661 351.913 482.733 351.444C479.804 350.975 477.11 350.388 475.236 349.919C473.244 349.568 472.19 349.216 472.19 349.216Z" fill="#5ABBAD"/>
<path d="M465.981 330.104C466.099 330.104 466.45 331.159 467.153 332.801C467.739 334.442 468.559 336.787 469.496 339.484C470.316 342.063 471.136 344.409 471.604 346.167C472.073 347.926 472.424 348.981 472.307 348.981C472.19 348.981 471.839 347.926 471.136 346.285C470.55 344.643 469.73 342.298 468.793 339.601C467.973 337.022 467.153 334.677 466.684 332.918C466.216 331.276 465.981 330.221 465.981 330.104Z" fill="#5ABBAD"/>
<path d="M446.302 347.926C446.419 347.926 446.887 349.216 447.707 351.444C448.527 353.554 449.582 356.603 450.753 359.886C451.924 363.169 452.979 366.218 453.681 368.445C454.384 370.673 454.736 371.963 454.736 372.08C454.619 372.08 454.15 370.79 453.33 368.563C452.51 366.452 451.456 363.404 450.284 360.12C449.113 356.837 448.059 353.789 447.356 351.561C446.653 349.333 446.184 347.926 446.302 347.926Z" fill="#5ABBAD"/>
<path d="M454.619 371.377C454.619 371.26 456.141 371.494 458.601 371.846C461.061 372.198 464.458 372.784 468.09 373.253C471.838 373.722 475.235 374.074 477.695 374.425C480.155 374.66 481.678 374.894 481.678 375.012C481.678 375.129 480.155 375.129 477.695 374.894C475.235 374.777 471.838 374.425 468.09 373.956C464.341 373.487 460.944 372.901 458.601 372.432C456.141 371.846 454.619 371.494 454.619 371.377Z" fill="#5ABBAD"/>
<path d="M479.211 159.148L476.437 250.091L542.823 252.12L545.597 161.177L479.211 159.148Z" fill="#F6F6F6"/>
<path d="M466.981 171.18L464.207 262.123L530.592 264.152L533.366 173.209L466.981 171.18Z" fill="white"/>
<path d="M530.526 264.208C530.526 264.208 530.526 264.09 530.526 263.739C530.526 263.387 530.526 263.035 530.526 262.449C530.526 261.276 530.643 259.635 530.643 257.524C530.76 253.186 530.877 246.854 531.111 238.881C531.58 222.935 532.166 200.187 532.986 173.337L533.22 173.571C513.189 172.985 490.698 172.281 466.801 171.578L467.153 171.226C466.098 205.229 465.161 236.653 464.341 262.097L464.107 261.863C484.138 262.566 500.772 263.035 512.369 263.504C518.109 263.739 522.677 263.856 525.723 263.973C527.246 264.09 528.417 264.09 529.237 264.09C530.174 264.09 530.526 264.208 530.526 264.208C530.526 264.208 530.174 264.208 529.354 264.208C528.534 264.208 527.363 264.208 525.84 264.09C522.794 263.973 518.226 263.856 512.486 263.739C500.889 263.387 484.255 262.918 464.107 262.449H463.873V262.214C464.693 236.653 465.63 205.229 466.567 171.226V170.874H466.918C490.698 171.578 513.306 172.281 533.337 172.985H533.571V173.219C532.751 200.187 531.931 222.935 531.463 238.998C531.229 246.971 530.994 253.303 530.877 257.641C530.76 259.752 530.76 261.394 530.643 262.566C530.643 263.152 530.643 263.504 530.643 263.856C530.526 263.973 530.526 264.208 530.526 264.208Z" fill="#5ABBAD"/>
<path d="M507.449 192.214C507.449 192.332 500.186 192.332 491.284 191.98C482.381 191.745 475.118 191.394 475.118 191.159C475.118 191.042 482.381 191.042 491.284 191.394C500.186 191.745 507.449 192.097 507.449 192.214Z" fill="#5ABBAD"/>
<path d="M524.669 200.657C524.669 200.774 513.54 200.657 499.835 200.188C486.129 199.719 475.001 199.25 475.001 199.132C475.001 199.015 486.129 199.132 499.835 199.601C513.54 200.07 524.669 200.539 524.669 200.657Z" fill="#5ABBAD"/>
<path d="M524.317 208.864C524.317 208.982 513.189 208.864 499.483 208.395C485.778 207.926 474.649 207.457 474.649 207.34C474.649 207.223 485.778 207.34 499.483 207.809C513.189 208.278 524.317 208.747 524.317 208.864Z" fill="#5ABBAD"/>
<path d="M524.083 217.189C524.083 217.307 512.955 217.189 499.249 216.72C485.544 216.251 474.416 215.782 474.416 215.665C474.416 215.548 485.544 215.665 499.249 216.134C512.955 216.486 524.083 216.955 524.083 217.189Z" fill="#5ABBAD"/>
<path d="M523.849 225.397C523.849 225.514 512.72 225.397 499.015 224.928C485.31 224.459 474.181 223.99 474.181 223.873C474.181 223.755 485.31 223.873 499.015 224.342C512.72 224.811 523.849 225.28 523.849 225.397Z" fill="#5ABBAD"/>
<path d="M523.615 233.605C523.615 233.722 512.487 233.605 498.781 233.136C485.076 232.667 473.947 232.198 473.947 232.08C473.947 231.963 485.076 232.08 498.781 232.549C512.487 233.018 523.615 233.487 523.615 233.605Z" fill="#5ABBAD"/>
<path d="M523.38 241.93C523.38 242.047 512.252 241.93 498.546 241.461C484.841 240.992 473.712 240.523 473.712 240.405C473.712 240.288 484.841 240.405 498.546 240.874C512.252 241.226 523.38 241.695 523.38 241.93Z" fill="#5ABBAD"/>
<path d="M500.069 249.434C500.069 249.551 494.095 249.551 486.715 249.317C479.336 249.082 473.361 248.73 473.361 248.613C473.361 248.496 479.336 248.496 486.715 248.73C494.095 248.965 500.069 249.317 500.069 249.434Z" fill="#5ABBAD"/>
<path d="M336.104 110.733L315.349 162.915L380.651 188.938L401.406 136.756L336.104 110.733Z" fill="white"/>
<path d="M401.32 136.754C401.32 136.754 401.203 136.754 400.968 136.637C400.734 136.52 400.5 136.402 400.031 136.285C399.211 135.933 398.04 135.464 396.517 134.878C393.471 133.705 388.903 131.829 383.163 129.602C371.683 125.029 355.401 118.58 335.955 110.841L336.072 110.724C329.864 126.319 322.835 144.141 315.338 162.901L315.221 162.784C339.352 172.399 361.843 181.427 380.469 188.814H380.352C386.677 173.102 391.831 160.087 395.463 150.942C397.337 146.369 398.743 142.851 399.68 140.389C400.148 139.216 400.5 138.278 400.851 137.575C401.203 137.106 401.32 136.754 401.32 136.754C401.32 136.754 401.203 137.106 400.968 137.692C400.734 138.278 400.383 139.216 399.914 140.506C398.977 142.968 397.571 146.486 395.697 151.059C392.066 160.205 386.911 173.22 380.703 189.049V189.166H380.586C361.96 181.779 339.469 172.751 315.338 163.136H315.221V163.019C322.718 144.141 329.864 126.319 335.955 110.841V110.724H336.072C355.518 118.463 371.8 125.029 383.28 129.602C389.02 131.947 393.471 133.705 396.634 134.995C398.157 135.581 399.328 136.051 400.148 136.402C400.5 136.52 400.851 136.637 401.086 136.754C401.32 136.754 401.32 136.754 401.32 136.754Z" fill="#5ABBAD"/>
<path d="M336.969 114.96L318.813 160.606L379.435 184.764L397.59 139.118L336.969 114.96Z" fill="#EFEFEF"/>
<path d="M319.087 160.791L351.535 140.858L357.626 163.839L370.278 157.86L379.766 184.945L319.087 160.791Z" fill="#5ABBAD"/>
<path d="M371.683 144.845C370.629 147.541 367.7 148.831 365.006 147.776C362.312 146.721 361.023 143.789 362.077 141.092C363.132 138.396 366.06 137.106 368.754 138.161C371.449 139.216 372.737 142.148 371.683 144.845Z" fill="#5ABBAD"/>
<path d="M165.984 194.56C165.984 194.56 166.452 194.912 167.39 194.794C167.858 194.794 168.444 194.56 168.912 194.091C169.381 193.622 169.732 192.801 170.201 192.097C171.958 188.932 174.652 184.359 177.815 178.848C178.635 177.441 179.455 176.034 180.392 174.509C180.861 173.689 181.329 172.985 181.681 172.164C181.915 171.813 182.149 171.344 182.266 170.992C182.384 170.64 182.384 170.171 182.266 169.702C182.149 169.35 181.915 168.881 181.564 168.647C181.212 168.412 180.744 168.178 180.392 167.943C179.572 167.474 178.635 167.005 177.815 166.536C176.058 165.598 174.184 164.543 172.427 163.488C164.93 159.267 156.847 154.694 148.178 149.886C147.241 149.3 145.953 149.652 145.367 150.59C144.781 151.645 144.196 152.7 143.493 153.756C142.321 155.866 141.15 157.86 139.979 159.853C137.636 163.839 135.41 167.709 133.184 171.461C132.95 171.93 132.599 172.399 132.364 172.868C132.13 173.337 132.013 173.689 132.013 174.158C132.013 174.627 132.247 175.096 132.482 175.448C132.716 175.799 133.184 176.034 133.653 176.268C135.41 177.206 137.167 178.262 138.807 179.2C142.087 181.076 145.133 182.834 147.944 184.359C153.567 187.525 158.018 190.104 161.181 191.98C162.704 192.918 163.875 193.622 164.812 194.091C165.164 194.325 165.515 194.56 165.75 194.677C165.867 194.56 165.984 194.56 165.984 194.56C165.984 194.56 165.867 194.56 165.632 194.443C165.398 194.325 165.047 194.091 164.695 193.973C163.875 193.504 162.587 192.801 161.064 191.98C157.901 190.221 153.333 187.642 147.71 184.593C144.898 183.069 141.853 181.31 138.456 179.434C136.816 178.496 135.059 177.558 133.301 176.62C132.833 176.386 132.364 176.151 132.013 175.682C131.662 175.213 131.427 174.627 131.427 174.04C131.427 173.454 131.544 172.868 131.896 172.399C132.13 171.93 132.482 171.461 132.716 170.992C134.824 167.24 137.05 163.37 139.393 159.384C140.564 157.391 141.736 155.28 142.907 153.287C143.493 152.231 144.078 151.176 144.781 150.121C145.484 148.948 147.241 148.479 148.413 149.183C156.964 153.99 165.164 158.68 172.544 162.784C174.418 163.839 176.175 164.895 177.932 165.833C178.869 166.302 179.689 166.771 180.509 167.357C180.978 167.592 181.329 167.826 181.798 168.178C182.266 168.53 182.501 168.999 182.618 169.468C182.735 169.937 182.735 170.523 182.618 170.992C182.501 171.461 182.149 171.813 181.915 172.282C181.446 173.102 180.978 173.806 180.509 174.627C179.572 176.151 178.752 177.558 177.932 178.965C174.652 184.476 172.075 189.049 170.201 192.097C169.732 192.801 169.381 193.622 168.912 194.091C168.444 194.56 167.741 194.794 167.272 194.794C166.804 194.794 166.452 194.677 166.218 194.677C165.984 194.677 165.984 194.56 165.984 194.56Z" fill="#5ABBAD"/>
<path d="M159.775 170.523L162.704 175.799L156.612 175.916L150.521 176.034L153.684 170.64L156.847 165.246L159.775 170.523Z" fill="#5ABBAD"/>
<path d="M557 394.124C557 394.359 445.013 394.476 306.787 394.476C168.56 394.476 56.5737 394.359 56.5737 394.124C56.5737 393.89 168.56 393.772 306.787 393.772C445.013 393.772 557 393.89 557 394.124Z" fill="#16191D"/>
<path d="M180.392 319.551L145.016 284.023L162.821 251.31C180.626 228.563 218.229 229.97 218.229 229.97C218.229 229.97 243.883 227.508 273.754 233.37C303.624 239.233 301.282 259.049 301.282 259.049L305.264 332.449L309.599 392.131L199.369 394.358L180.392 319.551Z" fill="#DE2D2B"/>
<path d="M239.782 390.958L141.033 392.131C117.253 392.365 101.439 367.742 111.63 346.285L153.918 267.843L192.34 293.873L166.101 348.395L246.108 349.802L239.782 390.958Z" fill="#DE2D2B"/>
<path d="M297.767 247.089L377.071 369.618L330.801 372.667C330.801 372.667 303.156 329.049 303.858 329.987C304.913 331.628 297.767 247.089 297.767 247.089Z" fill="#DE2D2B"/>
<path d="M190.349 300.908C190.349 300.908 190.349 300.673 190.466 300.322C190.583 299.853 190.7 299.266 190.935 298.563C191.286 297.038 191.872 294.811 192.34 291.997C192.926 289.183 193.512 285.899 193.863 282.147C194.214 278.395 194.449 274.291 193.863 270.07C193.277 265.849 191.637 261.98 189.763 258.814C187.889 255.648 185.78 252.951 183.906 250.841C182.032 248.73 180.275 247.206 179.103 246.151C177.932 245.095 177.229 244.626 177.229 244.509C177.229 244.509 177.463 244.626 177.815 244.861C178.166 245.095 178.635 245.447 179.22 245.916C180.509 246.854 182.266 248.379 184.14 250.489C186.132 252.482 188.24 255.179 190.232 258.462C192.106 261.745 193.746 265.615 194.449 269.953C195.034 274.291 194.8 278.395 194.332 282.147C193.863 285.899 193.277 289.183 192.692 291.997C192.106 294.811 191.52 297.038 191.052 298.563C190.817 299.384 190.7 299.97 190.466 300.322C190.466 300.673 190.349 300.908 190.349 300.908Z" fill="#16191D"/>
<path d="M187.186 305.129C187.186 305.129 186.952 305.832 186.484 306.888C186.015 308.06 185.312 309.585 184.375 311.578C182.618 315.564 180.041 321.075 177.112 327.055C174.184 333.035 171.372 338.429 169.381 342.298C168.327 344.174 167.507 345.816 166.921 346.871C166.335 347.926 165.984 348.513 165.984 348.513C165.984 348.513 166.218 347.926 166.804 346.754C167.39 345.581 168.21 344.057 169.147 342.181C171.138 338.194 173.832 332.801 176.761 326.938C179.689 320.958 182.267 315.564 184.141 311.578C185.078 309.702 185.781 308.177 186.366 306.888C186.835 305.715 187.186 305.129 187.186 305.129Z" fill="#16191D"/>
<path d="M239.782 390.958C239.782 390.958 239.782 390.841 239.782 390.724C239.782 390.607 239.782 390.372 239.782 390.138C239.782 389.551 239.899 388.848 240.016 387.793C240.251 385.682 240.602 382.751 240.953 378.999C241.773 371.377 243.062 360.707 244.468 348.161L244.702 348.513C235.799 348.513 225.959 348.513 215.534 348.513C195.62 348.513 177.58 348.396 164.46 348.396C158.018 348.396 152.629 348.278 148.998 348.278C147.241 348.278 145.835 348.278 144.781 348.278C144.312 348.278 143.961 348.278 143.726 348.278C143.492 348.278 143.375 348.278 143.375 348.278C143.375 348.278 143.492 348.278 143.726 348.278C143.961 348.278 144.312 348.278 144.781 348.278C145.835 348.278 147.241 348.278 148.998 348.278C152.746 348.278 158.018 348.278 164.46 348.161C177.58 348.161 195.62 348.161 215.534 348.044C225.959 348.044 235.799 348.044 244.702 348.044H245.053V348.396C243.531 360.942 242.242 371.612 241.305 379.233C240.836 382.985 240.485 385.916 240.133 388.027C240.016 388.965 239.899 389.786 239.782 390.372C239.782 390.607 239.665 390.841 239.665 390.958C239.899 390.841 239.782 390.958 239.782 390.958Z" fill="#16191D"/>
<path d="M166.804 349.216C166.686 349.216 166.101 348.278 164.812 346.754C163.641 345.23 161.767 343.236 159.541 341.36C157.315 339.484 154.972 337.96 153.332 337.022C151.692 336.084 150.521 335.615 150.521 335.498C150.521 335.38 151.692 335.732 153.45 336.67C155.207 337.491 157.549 338.898 159.892 340.891C162.235 342.885 163.992 344.878 165.164 346.519C166.335 348.044 166.804 349.216 166.804 349.216Z" fill="#16191D"/>
<path d="M306.904 356.955C306.904 356.955 306.787 356.603 306.787 355.899C306.67 355.196 306.553 354.258 306.436 352.968C306.201 350.389 305.85 346.754 305.381 342.181C304.561 333.152 303.624 320.489 302.804 306.653C301.984 292.817 301.399 280.154 301.047 271.008C300.93 266.436 300.813 262.801 300.696 260.221C300.696 258.931 300.696 257.993 300.696 257.29C300.696 256.586 300.696 256.234 300.696 256.234C300.696 256.234 300.696 256.586 300.813 257.29C300.813 257.993 300.93 259.049 300.93 260.221C301.047 262.801 301.281 266.553 301.399 271.008C301.867 280.154 302.453 292.7 303.273 306.536C304.093 320.372 304.913 333.035 305.616 342.064C305.967 346.519 306.201 350.271 306.436 352.851C306.553 354.023 306.553 355.079 306.67 355.782C306.904 356.603 306.904 356.955 306.904 356.955Z" fill="#16191D"/>
<path d="M218.697 290.355C218.697 290.355 218.697 289.769 218.814 288.714C218.931 287.541 219.166 286.134 219.4 284.258C219.868 280.389 220.571 275.112 221.391 268.898L221.86 269.133C219.517 270.774 216.94 272.533 214.246 274.409C211.551 276.285 208.974 278.161 206.514 279.803L205.929 280.154L206.046 279.451C206.983 273.354 207.803 268.077 208.389 264.325C208.74 262.566 208.974 261.042 209.092 259.987C209.326 258.932 209.326 258.463 209.443 258.463C209.443 258.463 209.443 259.049 209.326 260.104C209.209 261.159 208.974 262.684 208.74 264.56C208.154 268.429 207.452 273.705 206.632 279.803L206.163 279.568C208.506 277.927 211.2 276.05 213.894 274.174C216.589 272.298 219.166 270.54 221.508 268.898L222.094 268.546L221.977 269.25C221.04 275.347 220.337 280.623 219.751 284.493C219.517 286.369 219.283 287.776 219.048 288.948C218.931 289.769 218.814 290.355 218.697 290.355Z" fill="#5ABBAD"/>
<path d="M262.859 295.045C262.859 295.045 262.39 294.693 261.687 293.873C260.867 293.052 259.93 291.997 258.642 290.59C255.947 287.776 252.316 283.789 248.216 279.216L248.685 279.099C248.45 282.03 248.216 285.079 247.865 288.362C247.63 291.645 247.279 294.811 247.045 297.742V298.446L246.576 297.977C242.476 293.404 238.962 289.417 236.385 286.486C235.214 285.079 234.159 284.023 233.456 283.085C232.754 282.265 232.402 281.913 232.519 281.796C232.519 281.796 232.988 282.147 233.691 282.968C234.511 283.789 235.448 284.844 236.736 286.251C239.313 289.065 242.945 293.052 247.045 297.625L246.576 297.742C246.81 294.811 247.045 291.645 247.396 288.362C247.63 285.079 247.982 282.03 248.216 279.099V278.395L248.685 278.864C252.785 283.437 256.416 287.424 258.993 290.355C260.165 291.762 261.219 292.817 261.922 293.755C262.507 294.576 262.859 295.045 262.859 295.045Z" fill="#5ABBAD"/>
<path d="M284.999 293.521C284.999 293.521 284.764 293.99 284.179 294.928C283.593 295.866 282.773 297.156 281.836 298.68C279.727 301.963 276.799 306.419 273.519 311.695L273.284 311.226C276.096 310.757 279.259 310.171 282.421 309.702C285.701 309.116 288.747 308.647 291.676 308.178L292.378 308.06L292.027 308.647C288.63 313.806 285.584 318.144 283.476 321.427C282.421 322.952 281.601 324.124 281.016 325.062C280.43 325.883 280.079 326.352 280.079 326.352C280.079 326.352 280.313 325.883 280.899 324.945C281.484 324.007 282.304 322.717 283.241 321.193C285.35 317.91 288.278 313.454 291.558 308.295L291.793 308.764C288.864 309.233 285.819 309.819 282.539 310.406C279.376 310.992 276.213 311.461 273.402 311.93L272.699 312.047L273.05 311.461C276.447 306.302 279.376 301.846 281.601 298.563C282.656 297.039 283.476 295.749 284.061 294.928C284.647 293.99 284.999 293.521 284.999 293.521Z" fill="#5ABBAD"/>
<path d="M255.479 316.268C255.479 316.268 255.245 316.737 254.659 317.675C254.073 318.613 253.253 319.903 252.316 321.427C250.208 324.71 247.279 329.166 243.999 334.442L243.765 333.973C246.576 333.504 249.739 332.918 252.902 332.449C256.182 331.863 259.227 331.394 262.156 330.925L262.859 330.807L262.507 331.394C259.11 336.553 256.065 340.891 253.956 344.174C252.902 345.699 252.082 346.871 251.496 347.809C250.911 348.63 250.559 349.099 250.559 349.099C250.559 349.099 250.793 348.63 251.379 347.692C251.965 346.754 252.785 345.464 253.722 343.94C255.83 340.657 258.759 336.201 262.039 331.042L262.273 331.511C259.345 331.98 256.299 332.566 253.019 333.152C249.856 333.739 246.693 334.208 243.882 334.677L243.179 334.794L243.531 334.208C246.928 329.049 249.856 324.593 252.082 321.31C253.136 319.786 253.956 318.496 254.542 317.675C255.128 316.62 255.479 316.151 255.479 316.268Z" fill="#5ABBAD"/>
<path d="M319.204 293.169C319.204 293.169 318.97 293.638 318.384 294.576C317.798 295.514 316.978 296.804 316.041 298.328C313.933 301.612 311.004 306.067 307.724 311.344L307.49 310.875C310.301 310.406 313.464 309.819 316.627 309.35C319.907 308.764 322.953 308.295 325.881 307.826L326.584 307.709L326.233 308.295C322.835 313.454 319.79 317.792 317.681 321.076C316.627 322.6 315.807 323.772 315.221 324.71C314.636 325.531 314.284 326 314.284 326C314.284 326 314.518 325.531 315.104 324.593C315.69 323.655 316.51 322.365 317.447 320.841C319.556 317.558 322.484 313.102 325.764 307.943L325.998 308.412C323.07 308.881 320.024 309.467 316.744 310.054C313.581 310.64 310.419 311.109 307.607 311.578L306.904 311.695L307.256 311.109C310.653 305.95 313.581 301.494 315.807 298.211C316.861 296.687 317.681 295.397 318.267 294.576C318.853 293.638 319.204 293.169 319.204 293.169Z" fill="#5ABBAD"/>
<path d="M169.966 274.409C169.966 274.409 169.732 274.878 169.146 275.816C168.561 276.754 167.741 278.044 166.804 279.568C164.695 282.851 161.766 287.307 158.486 292.583L158.252 292.114C161.064 291.645 164.226 291.059 167.389 290.59C170.669 290.003 173.715 289.534 176.643 289.065L177.346 288.948L176.995 289.534C173.598 294.694 170.552 299.032 168.443 302.315C167.389 303.839 166.569 305.012 165.984 305.95C165.398 306.771 165.046 307.24 165.046 307.24C165.046 307.24 165.281 306.771 165.866 305.833C166.452 304.895 167.272 303.605 168.209 302.081C170.318 298.797 173.246 294.342 176.526 289.183L176.76 289.652C173.832 290.121 170.786 290.707 167.506 291.293C164.344 291.88 161.181 292.349 158.369 292.818L157.667 292.935L158.018 292.349C161.415 287.189 164.344 282.734 166.569 279.451C167.623 277.926 168.443 276.637 169.029 275.816C169.615 274.878 169.966 274.409 169.966 274.409Z" fill="#5ABBAD"/>
<path d="M123.696 362.114C123.696 362.114 124.047 362.466 124.75 363.286C125.453 364.107 126.39 365.28 127.561 366.687C130.021 369.735 133.418 373.839 137.284 378.647L136.816 378.764C137.284 375.95 137.636 372.784 138.104 369.618C138.573 366.335 139.041 363.169 139.51 360.355L139.627 359.652L140.096 360.238C143.844 365.045 147.124 369.266 149.584 372.315C150.638 373.722 151.575 375.012 152.278 375.832C152.864 376.653 153.215 377.122 153.215 377.122C153.215 377.122 152.864 376.771 152.161 375.95C151.458 375.129 150.521 373.956 149.35 372.549C146.89 369.501 143.61 365.397 139.744 360.59L140.213 360.472C139.744 363.404 139.276 366.452 138.807 369.735C138.338 372.901 137.87 376.067 137.401 378.881L137.284 379.585L136.816 379.116C132.95 374.308 129.67 370.087 127.21 367.039C126.039 365.631 125.219 364.342 124.516 363.521C123.93 362.583 123.579 362.114 123.696 362.114Z" fill="#5ABBAD"/>
<path d="M229.474 305.363C229.474 305.363 228.888 305.481 227.834 305.598C226.662 305.715 225.257 305.832 223.382 305.95C219.517 306.184 214.128 306.653 208.037 307.122L208.271 306.653C210.38 308.646 212.605 310.757 215.065 312.985C217.408 315.213 219.751 317.44 221.86 319.434L222.328 319.903H221.625C215.534 320.254 210.145 320.489 206.28 320.723C204.406 320.841 203 320.841 201.828 320.958C200.774 320.958 200.188 320.958 200.188 320.958C200.188 320.958 200.774 320.841 201.828 320.723C203 320.606 204.406 320.489 206.28 320.372C210.145 320.137 215.417 319.785 221.625 319.316L221.391 319.785C219.282 317.792 216.94 315.564 214.597 313.337C212.254 311.109 209.911 308.998 207.92 307.005L207.451 306.536H208.154C214.363 306.184 219.634 305.832 223.5 305.598C225.374 305.481 226.779 305.481 227.951 305.363C228.888 305.246 229.474 305.246 229.474 305.363Z" fill="#5ABBAD"/>
<path d="M203.469 364.459C203.469 364.459 203.937 364.811 204.523 365.632C205.226 366.452 206.28 367.625 207.452 369.032C210.029 371.963 213.426 376.067 217.409 380.874L216.94 380.992C217.291 378.178 217.643 375.012 218.111 371.846C218.58 368.563 218.931 365.397 219.283 362.466L219.4 361.762L219.868 362.231C223.734 367.039 227.131 371.142 229.591 374.191C230.763 375.598 231.7 376.771 232.403 377.709C232.988 378.529 233.34 378.998 233.34 378.998C233.34 378.998 232.988 378.647 232.285 377.826C231.583 377.005 230.645 375.833 229.357 374.426C226.897 371.494 223.5 367.39 219.517 362.7L219.986 362.583C219.634 365.514 219.166 368.68 218.814 371.963C218.346 375.129 217.994 378.295 217.643 381.109L217.526 381.812L217.057 381.343C213.074 376.536 209.677 372.432 207.217 369.384C206.046 367.977 205.109 366.804 204.406 365.866C203.82 364.928 203.469 364.459 203.469 364.459Z" fill="#5ABBAD"/>
<path d="M157.081 321.075C157.081 321.075 156.495 321.193 155.441 321.31C154.269 321.427 152.864 321.544 150.989 321.662C147.124 321.896 141.735 322.365 135.644 322.834L135.878 322.365C137.987 324.359 140.212 326.469 142.672 328.697C145.015 330.925 147.358 333.153 149.466 335.146L149.935 335.615H149.232C143.141 335.967 137.752 336.201 133.887 336.436C132.012 336.553 130.607 336.553 129.435 336.67C128.381 336.67 127.795 336.67 127.795 336.67C127.795 336.67 128.381 336.553 129.435 336.436C130.607 336.318 132.012 336.201 133.887 336.084C137.752 335.849 143.024 335.498 149.232 335.029L148.998 335.498C146.889 333.504 144.547 331.276 142.204 329.049C139.861 326.821 137.518 324.71 135.527 322.717L135.058 322.248H135.761C141.969 321.896 147.241 321.544 151.106 321.31C152.981 321.193 154.386 321.193 155.558 321.075C156.495 321.075 157.081 321.075 157.081 321.075Z" fill="#5ABBAD"/>
<path d="M196.909 363.052C196.909 363.052 196.323 363.169 195.269 363.286C194.097 363.404 192.692 363.521 190.817 363.638C186.952 363.873 181.563 364.342 175.472 364.811L175.706 364.342C177.815 366.335 180.04 368.446 182.5 370.673C184.843 372.901 187.186 375.129 189.295 377.122L189.763 377.591H189.06C182.969 377.943 177.581 378.178 173.715 378.412C171.841 378.529 170.435 378.529 169.264 378.647C168.209 378.647 167.624 378.647 167.624 378.647C167.624 378.647 168.209 378.529 169.264 378.412C170.435 378.295 171.841 378.178 173.715 378.06C177.581 377.826 182.852 377.474 189.06 377.005L188.826 377.474C186.718 375.481 184.375 373.253 182.032 371.025C179.689 368.797 177.346 366.687 175.355 364.693L174.886 364.224H175.589C181.798 363.873 187.069 363.521 190.935 363.286C192.809 363.169 194.215 363.169 195.386 363.052C196.323 363.052 196.909 363.052 196.909 363.052Z" fill="#5ABBAD"/>
<path d="M286.873 256.235C286.873 256.235 286.287 256.352 285.233 256.469C284.062 256.586 282.656 256.704 280.782 256.821C276.916 257.055 271.528 257.524 265.436 257.993L265.671 257.524C267.779 259.518 270.005 261.628 272.465 263.856C274.808 266.084 277.15 268.312 279.259 270.305L279.727 270.774H279.025C272.933 271.126 267.545 271.36 263.679 271.595C261.805 271.712 260.399 271.712 259.228 271.829C258.174 271.829 257.588 271.829 257.588 271.829C257.588 271.829 258.174 271.712 259.228 271.595C260.399 271.477 261.805 271.36 263.679 271.243C267.545 271.008 272.816 270.657 279.025 270.188L278.79 270.657C276.682 268.663 274.339 266.436 271.996 264.208C269.653 261.98 267.311 259.869 265.319 257.876L264.851 257.407H265.553C271.762 257.055 277.033 256.704 280.899 256.469C282.773 256.352 284.179 256.352 285.35 256.235C286.287 256.235 286.873 256.117 286.873 256.235Z" fill="#5ABBAD"/>
<path d="M243.18 363.052C243.18 363.052 262.859 357.424 269.419 355.665C271.996 354.962 282.89 360.707 290.387 365.514C290.387 365.514 300.696 371.612 299.876 373.605C298.939 375.715 295.19 375.246 289.099 372.432C289.099 372.432 291.207 378.647 287.107 378.53C287.107 378.53 289.216 385.213 285.233 385.916C281.368 386.62 280.43 378.06 276.916 377.591C273.519 377.122 266.374 376.653 266.374 376.653C266.374 376.653 260.399 386.503 255.831 387.206C251.262 387.91 240.603 386.62 240.603 386.62L243.18 363.052Z" fill="#F2E6A2"/>
<path d="M276.799 364.459C276.916 364.342 279.376 365.749 282.305 367.625C285.233 369.501 287.576 371.142 287.459 371.26C287.342 371.377 284.882 369.97 281.953 368.094C279.025 366.218 276.682 364.576 276.799 364.459Z" fill="#EFDF9E"/>
<path d="M275.628 368.211C275.745 368.094 278.674 369.266 282.188 370.908C285.702 372.549 288.514 373.956 288.514 374.191C288.396 374.308 285.468 373.135 281.954 371.494C278.322 369.852 275.511 368.445 275.628 368.211Z" fill="#EFDF9E"/>
<path d="M277.736 377.474C277.736 377.357 279.728 377.474 282.188 377.826C284.648 378.178 286.522 378.529 286.522 378.764C286.522 378.881 284.53 378.764 282.071 378.412C279.611 378.06 277.736 377.591 277.736 377.474Z" fill="#EFDF9E"/>
<path d="M217.526 159.618C217.994 161.142 217.408 162.901 216.237 163.957C215.066 165.012 213.191 165.129 211.786 164.426C209.091 163.018 208.74 159.384 209.326 156.452C209.794 153.521 210.849 150.355 209.56 147.658C208.623 145.548 206.514 144.258 204.991 142.616C202.18 139.802 200.774 135.581 201.36 131.595C202.063 127.608 204.991 124.091 208.857 123.035C212.723 121.98 217.643 123.153 220.571 120.338C222.68 118.228 222.797 114.945 224.437 112.482C227.014 108.613 232.402 108.027 236.854 108.73C241.422 109.317 245.991 110.841 250.442 109.668C254.191 108.73 257.236 106.151 260.633 104.509C268.13 101.109 277.853 102.868 283.593 108.965C289.333 114.945 290.622 124.677 286.873 132.064C285.467 134.761 283.359 137.106 280.665 138.278" fill="#16191D"/>
<path d="M240.134 256.469C252.668 256.469 262.859 246.151 262.742 233.605L262.39 212.03C262.39 212.03 280.43 210.271 281.719 192.332C282.89 174.392 282.07 133.002 282.07 133.002C261.805 122.918 237.674 124.677 219.048 137.457L216.237 139.333L217.643 234.191C217.643 246.503 227.717 256.469 240.134 256.469Z" fill="#F2E6A2"/>
<path d="M277.268 165.364C274.105 164.777 274.105 160.673 277.268 159.97C277.385 159.97 277.619 159.97 277.736 159.97C280.899 160.556 280.899 164.66 277.736 165.364C277.502 165.364 277.385 165.364 277.268 165.364Z" fill="#16191D"/>
<path d="M280.782 159.618C280.43 159.97 278.79 158.446 276.33 158.329C273.87 158.094 271.996 159.384 271.762 159.032C271.645 158.915 271.996 158.329 272.816 157.742C273.636 157.156 274.925 156.687 276.447 156.804C277.97 156.921 279.259 157.625 279.962 158.211C280.664 158.915 280.899 159.501 280.782 159.618Z" fill="#16191D"/>
<path d="M252.199 160.204C253.371 161.025 253.722 162.667 252.902 163.839C252.082 165.012 250.442 165.364 249.271 164.543C248.099 163.722 247.748 162.08 248.568 160.908C249.388 159.735 251.028 159.384 252.199 160.204Z" fill="#16191D"/>
<path d="M253.839 160.322C253.488 160.673 251.848 159.149 249.388 159.032C246.928 158.797 245.054 160.087 244.819 159.735C244.702 159.618 245.054 159.032 245.874 158.446C246.694 157.859 247.982 157.39 249.505 157.508C251.028 157.625 252.316 158.328 253.019 158.915C253.722 159.618 253.956 160.204 253.839 160.322Z" fill="#16191D"/>
<path d="M262.625 181.31C262.625 181.075 264.148 180.841 266.608 180.724C267.311 180.724 267.779 180.606 267.896 180.255C268.013 179.903 267.779 179.199 267.545 178.379C266.959 176.737 266.491 174.978 265.905 173.219C263.562 165.95 262.039 159.853 262.391 159.735C262.742 159.618 264.968 165.481 267.193 172.75C267.779 174.509 268.248 176.268 268.716 177.91C268.951 178.613 269.302 179.551 268.951 180.606C268.716 181.075 268.248 181.544 267.779 181.544C267.311 181.662 266.959 181.662 266.725 181.662C264.148 181.662 262.625 181.544 262.625 181.31Z" fill="#16191D"/>
<path d="M254.425 183.655C257.588 185.179 261.336 186.938 266.373 187.876C266.373 187.876 263.21 192.332 258.173 190.104C252.902 187.759 254.425 183.655 254.425 183.655Z" fill="white"/>
<path d="M262.39 211.678C262.39 211.678 251.028 212.03 239.313 203.705C239.313 203.705 244.116 216.955 262.156 216.251L262.39 211.678Z" fill="#EFDF9E"/>
<path d="M282.07 137.457C282.07 137.457 271.293 142.968 256.885 136.168C247.513 131.712 236.502 129.601 234.159 131.595C231.817 133.471 231.465 143.203 222.328 146.134C222.328 146.134 223.265 164.543 216.003 163.956C208.623 163.487 212.723 134.878 212.723 134.878L230.411 125.732L249.856 121.628L268.365 123.856L282.656 127.491L282.07 137.457Z" fill="#16191D"/>
<path d="M217.409 157.977C217.057 157.859 205.226 153.638 204.992 165.95C204.757 178.261 217.057 176.034 217.174 175.682C217.174 175.33 217.409 157.977 217.409 157.977Z" fill="#F2E6A2"/>
<path d="M213.425 170.874C213.425 170.874 213.191 170.992 212.839 171.226C212.488 171.343 211.902 171.461 211.199 171.226C209.911 170.757 208.857 168.647 208.857 166.419C208.857 165.246 209.091 164.191 209.559 163.37C209.911 162.432 210.497 161.846 211.199 161.729C211.902 161.611 212.254 161.963 212.488 162.315C212.605 162.667 212.605 162.901 212.605 162.901C212.605 162.901 212.839 162.667 212.839 162.198C212.839 161.963 212.605 161.611 212.371 161.377C212.137 161.142 211.668 161.025 211.199 161.025C210.262 161.025 209.325 161.963 208.974 162.901C208.505 163.839 208.154 165.012 208.154 166.302C208.154 168.764 209.442 171.109 211.199 171.695C212.019 171.93 212.839 171.695 213.191 171.461C213.425 171.226 213.542 170.874 213.425 170.874Z" fill="#EFDF9E"/>
<path d="M211.083 119.518C210.966 119.4 213.074 118.814 215.3 119.635C217.643 120.456 218.814 122.214 218.58 122.332C218.463 122.449 217.174 121.042 215.066 120.221C213.074 119.4 211.083 119.635 211.083 119.518Z" fill="#16191D"/>
<path d="M218.463 112.131C218.697 112.131 218.346 114.71 218.814 117.759C219.283 120.807 220.688 123.035 220.571 123.152C220.571 123.152 220.103 122.683 219.517 121.745C219.048 120.807 218.463 119.4 218.228 117.876C217.76 114.593 218.346 112.131 218.463 112.131Z" fill="#16191D"/>
<path d="M268.951 153.755C268.834 153.638 269.419 153.169 270.357 152.817C271.294 152.466 272.817 152.114 274.457 152.114C276.096 152.114 277.619 152.466 278.556 152.935C279.494 153.404 280.079 153.755 279.962 153.99C279.845 154.342 277.502 153.404 274.457 153.404C271.528 153.169 269.068 154.107 268.951 153.755Z" fill="#16191D"/>
<path d="M241.539 151.176C241.422 151.059 242.008 150.59 242.945 150.238C243.882 149.886 245.405 149.534 247.045 149.534C248.685 149.534 250.208 149.886 251.145 150.355C252.082 150.824 252.668 151.176 252.551 151.41C252.433 151.762 250.091 150.824 247.045 150.824C244.116 150.59 241.656 151.528 241.539 151.176Z" fill="#16191D"/>
<path d="M266.842 155.632C266.842 155.632 266.842 155.866 266.842 156.335C266.842 156.804 266.842 157.508 266.959 158.328C266.959 159.149 266.959 160.204 267.076 161.377C267.076 162.549 267.193 163.957 267.662 165.364C268.13 166.771 268.95 168.178 270.239 169.467C271.528 170.64 273.168 171.695 275.042 172.164C275.979 172.399 277.033 172.516 278.087 172.399C279.142 172.399 280.196 172.164 281.133 171.695C283.125 170.992 284.999 169.467 286.17 167.591C287.342 165.715 287.927 163.605 287.81 161.611C287.81 159.501 287.81 157.508 287.81 155.514L288.044 155.749C281.953 155.749 276.682 155.632 272.816 155.632C270.942 155.632 269.536 155.632 268.365 155.514C267.896 155.514 267.545 155.514 267.193 155.514C266.959 155.749 266.842 155.632 266.842 155.632C266.842 155.632 267.31 155.632 268.365 155.514C269.419 155.514 270.942 155.514 272.699 155.397C276.565 155.397 281.836 155.28 288.044 155.28H288.279V155.514C288.279 157.39 288.279 159.501 288.279 161.611C288.396 163.722 287.81 166.067 286.522 167.943C285.233 169.936 283.242 171.461 281.133 172.281C280.079 172.633 279.025 172.868 277.853 172.985C276.799 173.102 275.745 172.985 274.69 172.633C272.699 172.164 270.942 171.109 269.653 169.819C268.365 168.529 267.545 167.005 266.959 165.481C266.491 163.956 266.373 162.549 266.49 161.377C266.49 160.204 266.49 159.149 266.608 158.211C266.608 157.39 266.608 156.804 266.725 156.218C266.842 155.866 266.842 155.632 266.842 155.632Z" fill="#16191D"/>
<path d="M238.142 155.045C238.142 155.045 238.142 155.28 238.142 155.749C238.142 156.218 238.142 156.921 238.259 157.742C238.259 158.563 238.259 159.618 238.376 160.791C238.376 161.963 238.494 163.37 238.962 164.777C239.431 166.184 240.251 167.591 241.539 168.881C242.828 170.054 244.468 171.109 246.342 171.578C247.279 171.813 248.333 171.93 249.388 171.813C250.442 171.813 251.496 171.578 252.433 171.109C254.425 170.406 256.299 168.881 257.47 167.005C258.642 165.129 259.228 163.019 259.11 161.025C259.11 158.915 259.11 156.921 259.11 154.928L259.345 155.163C253.253 155.163 247.982 155.045 244.116 155.045C242.242 155.045 240.836 155.045 239.665 154.928C239.196 154.928 238.845 154.928 238.494 154.928C238.259 155.045 238.142 155.045 238.142 155.045C238.142 155.045 238.611 155.045 239.665 154.928C240.719 154.928 242.242 154.928 243.999 154.811C247.865 154.811 253.136 154.694 259.345 154.694H259.579V154.928C259.579 156.804 259.579 158.915 259.579 161.025C259.696 163.136 259.11 165.481 257.822 167.357C256.533 169.35 254.542 170.875 252.433 171.695C251.379 172.047 250.325 172.282 249.153 172.399C248.099 172.516 247.045 172.399 245.991 172.047C243.999 171.578 242.242 170.523 240.954 169.233C239.665 167.943 238.845 166.419 238.259 164.895C237.791 163.37 237.674 161.963 237.791 160.791C237.791 159.618 237.791 158.563 237.908 157.625C237.908 156.804 237.908 156.218 238.025 155.632C238.142 155.28 238.142 155.045 238.142 155.045Z" fill="#16191D"/>
<path d="M267.076 156.57C267.076 156.687 265.319 156.921 262.976 156.921C260.751 156.921 258.876 156.804 258.876 156.57C258.876 156.452 260.634 156.218 262.976 156.218C265.319 156.218 267.076 156.335 267.076 156.57Z" fill="#16191D"/>
<path d="M215.769 156.687C215.769 156.57 220.806 156.335 227.014 156.335C233.223 156.335 238.26 156.452 238.26 156.57C238.26 156.687 233.223 156.921 227.014 156.921C220.688 157.039 215.769 156.804 215.769 156.687Z" fill="#16191D"/>
<path d="M440.796 171.226L405.888 158.68L371.332 170.992C366.88 173.102 363.015 174.275 363.015 178.379V198.898C363.015 213.086 366.763 227.156 374.377 239.585C380.82 250.02 390.777 260.807 406.123 267.725C420.179 263.153 430.722 250.958 437.165 240.405C444.779 227.977 448.528 213.906 448.528 199.719V181.31C448.762 175.565 445.599 172.633 440.796 171.226Z" fill="#5ABBAD"/>
<g opacity="0.3">
<path opacity="0.3" d="M406.24 256C394.057 250.607 386.209 241.93 381.054 233.605C374.963 223.756 372.035 212.617 372.035 201.36V187.055C372.035 183.772 374.026 180.724 377.892 178.965L405.888 168.53V158.915L371.332 171.226C367.7 172.868 363.015 174.509 363.015 178.613V199.133C363.015 213.32 366.763 227.39 374.377 239.819C380.82 250.255 390.777 261.042 406.123 267.96V256H406.24Z" fill="#16191D"/>
</g>
<g opacity="0.4">
<path opacity="0.4" d="M406.24 267.843C408.7 267.022 410.925 266.084 413.034 264.911C418.774 261.746 423.811 257.407 427.559 253.538C431.776 249.199 434.939 244.392 437.633 239.936C445.248 227.508 448.996 213.437 448.645 198.781V181.896C448.645 173.454 444.31 172.868 440.679 171.226L405.771 158.68V168.295L434.002 178.965C437.868 180.841 439.859 183.772 439.859 187.055V201.36C439.859 212.617 436.931 223.756 430.839 233.605C425.685 241.93 418.188 250.372 406.005 255.883V267.843H406.24Z" fill="#16191D"/>
</g>
<path opacity="0.5" d="M415.142 200.422V197.608C415.142 192.566 411.043 188.58 406.123 188.58C401.086 188.58 397.103 192.684 397.103 197.608V200.422C394.643 200.774 392.769 202.885 392.769 205.464V221.762C392.769 224.576 394.994 226.804 397.806 226.804H414.674C417.485 226.804 419.711 224.576 419.711 221.762V205.464C419.828 202.767 417.72 200.657 415.142 200.422ZM408.583 217.658H404.131L404.834 214.493C404.014 214.024 403.545 213.203 403.545 212.148C403.545 210.623 404.717 209.451 406.24 209.451C407.763 209.451 408.934 210.623 408.934 212.148C408.934 213.086 408.465 213.906 407.763 214.375C408.114 215.665 408.583 217.658 408.583 217.658ZM413.268 200.422H398.977V197.725C398.977 193.856 402.14 190.573 406.123 190.573C409.988 190.573 413.268 193.739 413.268 197.725V200.422Z" fill="white"/>
<path d="M377.775 200.188C377.658 200.188 377.423 199.132 377.306 197.374C377.072 195.615 376.955 193.152 377.072 190.456C377.072 189.049 377.189 187.759 377.306 186.586C377.423 185.414 377.658 184.358 378.126 183.538C378.595 182.717 379.18 182.248 379.649 182.013C380.118 181.779 380.469 181.779 380.469 181.779C380.586 181.896 379.298 182.131 378.595 183.655C378.243 184.476 378.126 185.414 378.009 186.586C377.892 187.759 377.892 189.049 377.775 190.338C377.658 193.035 377.775 195.498 377.892 197.256C377.775 199.132 377.892 200.188 377.775 200.188Z" fill="white"/>
<path d="M378.243 209.099C378.126 209.099 377.892 208.278 377.892 207.223C377.892 206.168 378.009 205.347 378.126 205.347C378.243 205.347 378.477 206.168 378.477 207.223C378.594 208.278 378.477 209.099 378.243 209.099Z" fill="white"/>
<path d="M341.461 293.521L302.57 389.786H232.52V394.124H441.382L484.021 293.521H341.461Z" fill="#16191D"/>
<path d="M400.968 350.389C399.562 355.196 395.463 358.245 391.831 357.19C388.2 356.134 386.326 351.327 387.731 346.52C389.137 341.712 393.237 338.664 396.868 339.719C400.5 340.657 402.374 345.464 400.968 350.389Z" fill="white"/>
</g>
</g>
<defs>
<filter id="filter0_d_1_833" x="0" y="0" width="607" height="450" filterUnits="userSpaceOnUse" color-interpolation-filters="sRGB">
<feFlood flood-opacity="0" result="BackgroundImageFix"/>
<feColorMatrix in="SourceAlpha" type="matrix" values="0 0 0 0 0 0 0 0 0 0 0 0 0 0 0 0 0 0 127 0" result="hardAlpha"/>
<feOffset dy="4"/>
<feGaussianBlur stdDeviation="25"/>
<feComposite in2="hardAlpha" operator="out"/>
<feColorMatrix type="matrix" values="0 0 0 0 0 0 0 0 0 0 0 0 0 0 0 0 0 0 0.07 0"/>
<feBlend mode="normal" in2="BackgroundImageFix" result="effect1_dropShadow_1_833"/>
<feBlend mode="normal" in="SourceGraphic" in2="effect1_dropShadow_1_833" result="shape"/>
</filter>
<filter id="filter1_d_1_833" x="0" y="0" width="607" height="450" filterUnits="userSpaceOnUse" color-interpolation-filters="sRGB">
<feFlood flood-opacity="0" result="BackgroundImageFix"/>
<feColorMatrix in="SourceAlpha" type="matrix" values="0 0 0 0 0 0 0 0 0 0 0 0 0 0 0 0 0 0 127 0" result="hardAlpha"/>
<feOffset dy="4"/>
<feGaussianBlur stdDeviation="25"/>
<feComposite in2="hardAlpha" operator="out"/>
<feColorMatrix type="matrix" values="0 0 0 0 0 0 0 0 0 0 0 0 0 0 0 0 0 0 0.07 0"/>
<feBlend mode="normal" in2="BackgroundImageFix" result="effect1_dropShadow_1_833"/>
<feBlend mode="normal" in="SourceGraphic" in2="effect1_dropShadow_1_833" result="shape"/>
</filter>
</defs>
</svg>
