<svg width="29" height="19" viewBox="0 0 29 19" fill="none" xmlns="http://www.w3.org/2000/svg">
<path fill-rule="evenodd" clip-rule="evenodd" d="M2.84016 15.5013C4.50845 17.13 6.81319 18.1374 9.35892 18.1374C11.9046 18.1374 14.2093 17.13 15.8776 15.5013L28.9151 2.77347C27.2468 1.14477 24.9421 0.137405 22.3964 0.137405C19.8506 0.137405 17.5459 1.14477 15.8777 2.77344L15.8776 2.77347C14.2093 1.14477 11.9046 0.137405 9.35894 0.137405C3.88835 0.137405 0.426713 4.15303 0.141048 9.27087C0.177274 11.7031 1.20181 13.9019 2.84016 15.5013Z" fill="#E42E2C"/>
<path fill-rule="evenodd" clip-rule="evenodd" d="M15.9386 2.78456C14.2638 1.14901 11.9502 0.137405 9.39464 0.137405C3.90286 0.137405 0.42782 4.16993 0.141048 9.3093C0.177414 11.7518 1.20592 13.9598 2.85061 15.566L15.9386 2.78456Z" fill="url(#paint0_linear_454_2)"/>
<defs>
<linearGradient id="paint0_linear_454_2" x1="1.27647" y1="10.5653" x2="10.723" y2="20.5169" gradientUnits="userSpaceOnUse">
<stop stop-opacity="0.01"/>
<stop offset="0.102712" stop-opacity="0.0536334"/>
<stop offset="0.196571" stop-opacity="0.105632"/>
<stop offset="0.3031" stop-opacity="0.191599"/>
<stop offset="0.386504" stop-opacity="0.24536"/>
<stop offset="1"/>
</linearGradient>
</defs>
</svg>
