<svg width="207" height="39" viewBox="0 0 207 39" fill="none" xmlns="http://www.w3.org/2000/svg">
<path fill-rule="evenodd" clip-rule="evenodd" d="M5.92216 32.725C9.4009 36.1634 14.2068 38.29 19.5152 38.29C24.8235 38.29 29.6293 36.1634 33.108 32.725L60.2939 5.85506C56.8152 2.41669 52.0093 0.290039 46.701 0.290039C41.3926 0.290039 36.5868 2.41669 33.1081 5.85501L33.108 5.85506C29.6293 2.41669 24.8235 0.290039 19.5152 0.290039C8.10786 0.290039 0.889617 8.76747 0.293945 19.5718C0.369483 24.7066 2.50585 29.3484 5.92216 32.725Z" fill="#E42E2C"/>
<path fill-rule="evenodd" clip-rule="evenodd" d="M33.2351 5.87847C29.7429 2.42564 24.9185 0.290039 19.5896 0.290039C8.13813 0.290039 0.891924 8.80314 0.293945 19.6529C0.369776 24.8093 2.51442 29.4706 5.94395 32.8615L33.2351 5.87847Z" fill="url(#paint0_linear_1_834)"/>
<path d="M74.0227 31V7.72727H83.2045C84.9697 7.72727 86.4735 8.06439 87.7159 8.73864C88.9583 9.4053 89.9053 10.3333 90.5568 11.5227C91.2159 12.7045 91.5455 14.0682 91.5455 15.6136C91.5455 17.1591 91.2121 18.5227 90.5455 19.7045C89.8788 20.8864 88.9129 21.8068 87.6477 22.4659C86.3902 23.125 84.8674 23.4545 83.0795 23.4545H77.2273V19.5114H82.2841C83.2311 19.5114 84.0114 19.3485 84.625 19.0227C85.2462 18.6894 85.7083 18.2311 86.0114 17.6477C86.322 17.0568 86.4773 16.3788 86.4773 15.6136C86.4773 14.8409 86.322 14.1667 86.0114 13.5909C85.7083 13.0076 85.2462 12.5568 84.625 12.2386C84.0038 11.9129 83.2159 11.75 82.2614 11.75H78.9432V31H74.0227ZM95.7415 31V7.72727H104.923C106.681 7.72727 108.181 8.04167 109.423 8.67045C110.673 9.29167 111.624 10.1742 112.276 11.3182C112.935 12.4545 113.264 13.7917 113.264 15.3295C113.264 16.875 112.931 18.2045 112.264 19.3182C111.598 20.4242 110.632 21.2727 109.366 21.8636C108.109 22.4545 106.586 22.75 104.798 22.75H98.6506V18.7955H104.003C104.942 18.7955 105.723 18.6667 106.344 18.4091C106.965 18.1515 107.427 17.7652 107.73 17.25C108.041 16.7348 108.196 16.0947 108.196 15.3295C108.196 14.5568 108.041 13.9053 107.73 13.375C107.427 12.8447 106.961 12.4432 106.332 12.1705C105.711 11.8902 104.927 11.75 103.98 11.75H100.662V31H95.7415ZM108.31 20.4091L114.094 31H108.662L103.003 20.4091H108.31ZM122.662 7.72727V31H117.741V7.72727H122.662ZM140.335 14.4205C140.244 13.5038 139.854 12.7917 139.165 12.2841C138.475 11.7765 137.54 11.5227 136.358 11.5227C135.555 11.5227 134.877 11.6364 134.324 11.8636C133.771 12.0833 133.347 12.3902 133.051 12.7841C132.763 13.178 132.619 13.625 132.619 14.125C132.604 14.5417 132.691 14.9053 132.881 15.2159C133.078 15.5265 133.347 15.7955 133.688 16.0227C134.028 16.2424 134.422 16.4356 134.869 16.6023C135.316 16.7614 135.794 16.8977 136.301 17.0114L138.392 17.5114C139.407 17.7386 140.339 18.0417 141.188 18.4205C142.036 18.7992 142.771 19.2652 143.392 19.8182C144.013 20.3712 144.494 21.0227 144.835 21.7727C145.184 22.5227 145.362 23.3826 145.369 24.3523C145.362 25.7765 144.998 27.0114 144.278 28.0568C143.566 29.0947 142.536 29.9015 141.188 30.4773C139.847 31.0455 138.229 31.3295 136.335 31.3295C134.456 31.3295 132.82 31.0417 131.426 30.4659C130.04 29.8902 128.956 29.0379 128.176 27.9091C127.403 26.7727 126.998 25.3674 126.96 23.6932H131.722C131.775 24.4735 131.998 25.125 132.392 25.6477C132.794 26.1629 133.328 26.553 133.994 26.8182C134.669 27.0758 135.43 27.2045 136.278 27.2045C137.112 27.2045 137.835 27.0833 138.449 26.8409C139.07 26.5985 139.551 26.2614 139.892 25.8295C140.233 25.3977 140.403 24.9015 140.403 24.3409C140.403 23.8182 140.248 23.3788 139.938 23.0227C139.634 22.6667 139.188 22.3636 138.597 22.1136C138.013 21.8636 137.297 21.6364 136.449 21.4318L133.915 20.7955C131.953 20.3182 130.403 19.572 129.267 18.5568C128.131 17.5417 127.566 16.1742 127.574 14.4545C127.566 13.0455 127.941 11.8144 128.699 10.7614C129.464 9.70833 130.513 8.88636 131.847 8.29545C133.18 7.70454 134.695 7.40909 136.392 7.40909C138.119 7.40909 139.627 7.70454 140.915 8.29545C142.21 8.88636 143.218 9.70833 143.938 10.7614C144.657 11.8144 145.028 13.0341 145.051 14.4205H140.335ZM154.599 7.72727V31H149.679V7.72727H154.599ZM175.08 15.25C174.92 14.697 174.697 14.2083 174.409 13.7841C174.121 13.3523 173.769 12.9886 173.352 12.6932C172.943 12.3902 172.473 12.1591 171.943 12C171.42 11.8409 170.841 11.7614 170.205 11.7614C169.015 11.7614 167.97 12.0568 167.068 12.6477C166.174 13.2386 165.477 14.0985 164.977 15.2273C164.477 16.3485 164.227 17.7197 164.227 19.3409C164.227 20.9621 164.473 22.3409 164.966 23.4773C165.458 24.6136 166.155 25.4811 167.057 26.0795C167.958 26.6705 169.023 26.9659 170.25 26.9659C171.364 26.9659 172.314 26.7689 173.102 26.375C173.898 25.9735 174.504 25.4091 174.92 24.6818C175.345 23.9545 175.557 23.0947 175.557 22.1023L176.557 22.25H170.557V18.5455H180.295V21.4773C180.295 23.5227 179.864 25.2803 179 26.75C178.136 28.2121 176.947 29.3409 175.432 30.1364C173.917 30.9242 172.182 31.3182 170.227 31.3182C168.045 31.3182 166.129 30.8371 164.477 29.875C162.826 28.9053 161.538 27.5303 160.614 25.75C159.697 23.9621 159.239 21.8409 159.239 19.3864C159.239 17.5 159.511 15.8182 160.057 14.3409C160.61 12.8561 161.383 11.5985 162.375 10.5682C163.367 9.53788 164.523 8.75379 165.841 8.21591C167.159 7.67803 168.587 7.40909 170.125 7.40909C171.443 7.40909 172.67 7.60227 173.807 7.98864C174.943 8.36742 175.951 8.9053 176.83 9.60227C177.716 10.2992 178.439 11.1288 179 12.0909C179.561 13.0455 179.92 14.0985 180.08 15.25H175.08ZM204.457 7.72727V31H200.207L190.082 16.3523H189.912V31H184.991V7.72727H189.31L199.355 22.3636H199.56V7.72727H204.457Z" fill="#E42E2C"/>
<defs>
<linearGradient id="paint0_linear_1_834" x1="2.66154" y1="22.3045" x2="22.6154" y2="43.0674" gradientUnits="userSpaceOnUse">
<stop stop-opacity="0.01"/>
<stop offset="0.102712" stop-opacity="0.0536334"/>
<stop offset="0.196571" stop-opacity="0.105632"/>
<stop offset="0.3031" stop-opacity="0.191599"/>
<stop offset="0.386504" stop-opacity="0.24536"/>
<stop offset="1"/>
</linearGradient>
</defs>
</svg>
